<svg xmlns="http://www.w3.org/2000/svg" viewBox="0 0 100 100">
  <!-- Cabeça do gato -->
  <circle cx="50" cy="45" r="25" fill="#FFB6C1" stroke="#FF69B4" stroke-width="2"/>
  
  <!-- Orelhas -->
  <polygon points="30,25 35,15 45,25" fill="#FFB6C1" stroke="#FF69B4" stroke-width="1"/>
  <polygon points="70,25 65,15 55,25" fill="#FFB6C1" stroke="#FF69B4" stroke-width="1"/>
  
  <!-- Olhos -->
  <circle cx="42" cy="40" r="3" fill="#000"/>
  <circle cx="58" cy="40" r="3" fill="#000"/>
  
  <!-- Nariz -->
  <polygon points="50,45 48,50 52,50" fill="#FF69B4"/>
  
  <!-- Boca -->
  <path d="M 45 55 Q 50 60 55 55" stroke="#000" stroke-width="1" fill="none"/>
  
  <!-- Bigodes -->
  <line x1="25" y1="45" x2="35" y2="45" stroke="#000" stroke-width="1"/>
  <line x1="25" y1="48" x2="35" y2="48" stroke="#000" stroke-width="1"/>
  <line x1="75" y1="45" x2="65" y2="45" stroke="#000" stroke-width="1"/>
  <line x1="75" y1="48" x2="65" y2="48" stroke="#000" stroke-width="1"/>
  
  <!-- Corpo -->
  <ellipse cx="50" cy="75" rx="20" ry="15" fill="#FFB6C1" stroke="#FF69B4" stroke-width="2"/>
  
  <!-- Cauda -->
  <path d="M 70 75 Q 85 65 80 85 Q 75 95 70 85" fill="#FFB6C1" stroke="#FF69B4" stroke-width="1"/>
</svg> 